<?xml version="1.0" encoding="utf-8"?>
<!-- Generator: Adobe Illustrator 28.0.0, SVG Export Plug-In . SVG Version: 6.00 Build 0)  -->
<svg version="1.1" id="Layer_1" xmlns="http://www.w3.org/2000/svg" xmlns:xlink="http://www.w3.org/1999/xlink" x="0px" y="0px"
	 viewBox="0 0 512 512" style="enable-background:new 0 0 512 512;" xml:space="preserve">
<style type="text/css">
	.st0{fill:#A8A8A8;}
</style>
<path class="st0" d="M314.8,147.5H197.2c-27.5,0-49.7,22.3-49.7,49.7c0,0,0,0,0,0v117.5c0,27.5,22.3,49.7,49.7,49.7h117.5
	c27.5,0,49.7-22.3,49.7-49.7V197.2C364.5,169.8,342.2,147.5,314.8,147.5C314.8,147.5,314.8,147.5,314.8,147.5z M256,324.4
	c-37.8,0-68.4-30.6-68.4-68.4s30.6-68.4,68.4-68.4s68.4,30.6,68.4,68.4v0C324.4,293.8,293.8,324.4,256,324.4z M327.2,201.6
	c-9,0-16.3-7.3-16.3-16.3c0-9,7.3-16.3,16.3-16.3c9,0,16.3,7.3,16.3,16.3c0,0,0,0,0,0C343.5,194.3,336.2,201.6,327.2,201.6z"/>
<path class="st0" d="M256,211.5c-24.6,0-44.5,19.9-44.5,44.5s19.9,44.5,44.5,44.5c24.6,0,44.5-19.9,44.5-44.5c0,0,0,0,0,0
	C300.5,231.4,280.6,211.5,256,211.5z"/>
<path class="st0" d="M256,0C114.6,0,0,114.6,0,256s114.6,256,256,256s256-114.6,256-256S397.4,0,256,0z M389.3,312.5
	c0,42.4-34.4,76.8-76.8,76.8h-113c-42.4,0-76.8-34.4-76.8-76.8v-113c0-42.4,34.4-76.8,76.8-76.8h113c42.4,0,76.8,34.4,76.8,76.8
	V312.5z"/>
</svg>
