<?xml version="1.0" encoding="utf-8"?>
<!-- Generator: Adobe Illustrator 28.0.0, SVG Export Plug-In . SVG Version: 6.00 Build 0)  -->
<svg version="1.1" id="Layer_1" xmlns="http://www.w3.org/2000/svg" xmlns:xlink="http://www.w3.org/1999/xlink" x="0px" y="0px"
	 viewBox="0 0 512 512" style="enable-background:new 0 0 512 512;" xml:space="preserve">
<style type="text/css">
	.st0{fill:#A8A8A8;}
</style>
<path class="st0" d="M195.5,308.7c-7.7,3.8-11,12.9-7.3,20.2s12.8,10.2,20.5,6.3s11-12.9,7.3-20.2S203.2,304.8,195.5,308.7z"/>
<path class="st0" d="M225.9,301.5c-3.3,1.6-4.8,5.3-3.3,8.3s5.3,4,8.6,2.3s4.8-5.3,3.3-8.3S229.2,299.9,225.9,301.5z"/>
<path class="st0" d="M256,0C114.6,0,0,114.6,0,256s114.6,256,256,256s256-114.6,256-256S397.4,0,256,0z M358.9,304.9
	c-6.3,19.8-21.1,41.2-54.8,58.7c-22.1,11.5-51.4,20.9-82.6,20.9c-103.8,0-112.2-65-112.2-78.4c0-40.1,36.7-96.9,70.1-116.9
	s53.4-26.7,66.8-13.4c7.1,7.1,6.4,23.2,2.2,36.1c-0.6,1.9,0.4,4,2.4,4.6c1,0.3,2.2,0.2,3.1-0.4c10.7-6.8,28-15.5,45.9-15.3
	c29.3,0.3,25.8,28.8,24.5,35.5c-0.8,3.4-1.9,6.7-3.3,9.9c-1.5,3.5,0.1,7.5,3.6,9c0.4,0.2,0.9,0.3,1.3,0.4c6.7,1.3,13.1,3.6,19,6.9
	C358,270,363.5,290.5,358.9,304.9z M361.6,222.1c-1.5,5.1-6.9,8.1-12,6.5c-5.1-1.5-8.1-6.9-6.5-12c1.5-5.1,1-15.5-4.7-22.7
	c-4.5-5.6-11.7-8.1-21.4-7.4c-5.3,0.4-10-3.5-10.5-8.8c-0.4-5.3,3.5-10,8.8-10.5c0,0,0.1,0,0.1,0c20.4-1.6,31.9,7,37.9,14.5
	C363.5,194.3,364.8,211.5,361.6,222.1L361.6,222.1z M399.6,233.3c-1.8,5.6-7.8,8.7-13.4,7c-5.6-1.8-8.7-7.8-7-13.4
	c4.5-14.3,2-39-11.7-56.5c-12.3-15.7-30.7-22.9-54.8-21.3c-5.9,0.4-11-4.1-11.3-10c-0.4-5.9,4.1-11,10-11.3
	c39.3-2.5,61.4,14.7,73,29.5C403.6,181.8,405.7,213.9,399.6,233.3z"/>
<path class="st0" d="M218.9,247c-49.8,3.5-88.3,33.1-86,66.3s44.6,57.1,94.3,53.7s88.3-33.1,86-66.3S268.7,243.6,218.9,247z
	 M226,353.4c-25.8,5.7-50.8-7.7-55.7-29.9s12-44.9,37.9-50.7s50.8,7.7,55.7,29.9S251.9,347.6,226,353.4z"/>
</svg>
