<?xml version="1.0" encoding="utf-8"?>
<!-- Generator: Adobe Illustrator 28.0.0, SVG Export Plug-In . SVG Version: 6.00 Build 0)  -->
<svg version="1.1" id="Layer_1" xmlns="http://www.w3.org/2000/svg" xmlns:xlink="http://www.w3.org/1999/xlink" x="0px" y="0px"
	 viewBox="0 0 32 32" style="enable-background:new 0 0 32 32;" xml:space="preserve">
<path d="M20.7,15c2.1-1.5,3.6-4,3.6-6.8C24.2,3.7,20.5,0,16,0S7.8,3.7,7.8,8.2c0,2.8,1.4,5.3,3.6,6.8C5.8,16.3,2,20,2,24.6v3.3
	C2,30.2,3.8,32,6.1,32h19.8c2.3,0,4.1-1.8,4.1-4.1v-3.3C30,20,26.2,16.3,20.7,15z M9.8,8.2C9.8,4.8,12.6,2,16,2s6.2,2.8,6.2,6.2
	s-2.8,6.2-6.2,6.2S9.8,11.7,9.8,8.2z M28,27.9c0,1.2-0.9,2.1-2.1,2.1H6.1C4.9,30,4,29.1,4,27.9v-3.3c0-4.6,5.3-8.1,12-8.1
	s12,3.6,12,8.1V27.9z"/>
</svg>
