<?xml version="1.0" encoding="utf-8"?>
<!-- Generator: Adobe Illustrator 28.0.0, SVG Export Plug-In . SVG Version: 6.00 Build 0)  -->
<svg version="1.1" id="Layer_1" xmlns="http://www.w3.org/2000/svg" xmlns:xlink="http://www.w3.org/1999/xlink" x="0px" y="0px"
	 viewBox="0 0 32 32" style="enable-background:new 0 0 32 32;" xml:space="preserve">
<path d="M3.1,32h25.8l0,0c0.6,0,1-0.4,1-1c0-0.1,0-0.2,0-0.3L28.2,8.9c0-0.5-0.5-0.9-1-0.9H24c0-4.4-3.6-8-8-8S8,3.6,8,8H4.8
	c-0.5,0-1,0.4-1,0.9l-1.7,22c0,0.3,0.1,0.6,0.3,0.8C2.6,31.9,2.8,32,3.1,32z M16,2c3.3,0,6,2.7,6,6H10C10,4.7,12.7,2,16,2z M5.7,10
	H8v2c0,0.6,0.4,1,1,1s1-0.4,1-1v-2h12v2c0,0.6,0.4,1,1,1s1-0.4,1-1v-2h2.3l1.5,20H4.2L5.7,10z"/>
</svg>
