<?xml version="1.0" standalone="no"?>
<!DOCTYPE svg PUBLIC "-//W3C//DTD SVG 20010904//EN"
 "http://www.w3.org/TR/2001/REC-SVG-20010904/DTD/svg10.dtd">
<svg version="1.0" xmlns="http://www.w3.org/2000/svg"
 width="617.000000pt" height="80.000000pt" viewBox="0 0 617.000000 80.000000"
 preserveAspectRatio="xMidYMid meet">

<g transform="translate(0.000000,80.000000) scale(0.100000,-0.100000)"
fill="#000000" stroke="none">
<path d="M5840 774 c-75 -20 -124 -55 -156 -109 -23 -40 -26 -54 -22 -114 3
-56 9 -75 31 -105 37 -48 58 -61 174 -107 120 -48 143 -68 143 -124 0 -53 -21
-82 -71 -95 -69 -19 -145 4 -227 69 -28 23 -54 41 -57 41 -3 0 -5 -31 -5 -68
0 -80 9 -92 86 -121 69 -26 162 -35 227 -21 123 25 191 105 191 225 -1 116
-56 173 -228 231 -89 31 -126 64 -126 115 0 64 76 110 158 94 48 -9 101 -37
131 -69 14 -14 28 -26 33 -26 5 0 8 33 6 72 l-3 73 -55 22 c-76 30 -162 36
-230 17z"/>
<path d="M7 763 c-9 -8 -9 -153 0 -153 3 0 34 11 67 24 37 15 87 26 126 28
l65 3 3 -273 c2 -256 1 -274 -18 -312 -11 -21 -20 -42 -20 -45 0 -3 52 -5 116
-5 107 0 116 1 109 17 -34 80 -35 96 -33 356 l3 262 64 -3 c55 -3 92 -13 174
-47 15 -6 17 1 17 74 l0 81 -333 0 c-184 0 -337 -3 -340 -7z"/>
<path d="M901 728 c-10 -24 -22 -54 -26 -68 -4 -14 -33 -90 -65 -170 -32 -80
-75 -190 -95 -245 -20 -55 -50 -124 -66 -152 -16 -29 -29 -55 -29 -58 0 -3 43
-5 95 -5 52 0 95 2 95 4 0 1 -5 18 -11 35 -9 27 -8 44 6 92 l18 59 143 0 c92
0 145 -4 150 -11 3 -6 12 -34 20 -61 11 -43 11 -56 -1 -85 l-14 -33 120 0 c65
0 119 2 119 5 0 3 -11 27 -24 54 -14 27 -64 147 -111 267 -47 121 -103 262
-124 314 l-37 95 -72 3 -72 3 -19 -43z m94 -175 c10 -27 33 -87 51 -135 19
-48 34 -92 34 -98 0 -6 -42 -10 -111 -10 -128 0 -121 -18 -57 145 22 55 44
110 49 123 5 12 10 22 12 22 3 0 12 -21 22 -47z"/>
<path d="M1400 766 c0 -3 9 -20 20 -38 19 -31 20 -51 20 -326 0 -274 -1 -295
-20 -332 l-20 -40 96 0 c88 0 95 2 89 18 -32 75 -34 93 -34 322 0 209 2 232
14 205 13 -28 125 -331 176 -478 l24 -68 70 3 70 3 53 150 c30 83 75 208 101
278 l46 128 3 -237 c2 -221 1 -240 -18 -276 -11 -21 -20 -41 -20 -43 0 -3 52
-5 115 -5 63 0 115 2 115 5 0 3 -9 23 -20 45 -19 36 -20 59 -20 320 0 261 1
284 20 320 11 22 20 42 20 45 0 3 -55 4 -122 3 l-122 -3 -22 -60 c-33 -91
-165 -458 -170 -474 -2 -8 -6 -12 -8 -10 -3 3 -54 142 -170 459 l-32 85 -127
3 c-70 1 -127 0 -127 -2z"/>
<path d="M2400 765 c0 -3 9 -23 20 -45 19 -36 20 -59 20 -320 0 -261 -1 -284
-20 -320 -11 -22 -20 -42 -20 -45 0 -3 91 -5 203 -5 232 0 285 10 346 65 42
38 61 88 61 159 0 87 -39 142 -124 175 l-47 18 41 27 c52 34 80 80 80 131 0
81 -58 133 -175 154 -59 11 -385 16 -385 6z m360 -98 c51 -25 59 -126 16 -192
-15 -23 -22 -25 -101 -25 l-85 0 0 115 0 115 73 0 c39 0 83 -6 97 -13z m35
-312 c41 -20 58 -53 58 -110 0 -50 -23 -91 -64 -112 -14 -7 -62 -13 -111 -13
l-88 0 0 125 0 125 86 0 c57 0 97 -5 119 -15z"/>
<path d="M3072 728 c20 -39 22 -62 27 -273 6 -227 6 -231 34 -287 45 -91 114
-136 238 -153 53 -8 144 7 196 32 50 23 102 77 127 132 18 41 21 70 26 281 4
202 8 240 23 263 9 14 17 31 17 37 0 6 -38 10 -100 10 -55 0 -100 -1 -100 -3
0 -2 9 -22 20 -45 18 -37 20 -61 20 -239 0 -112 -5 -215 -11 -238 -21 -77 -76
-115 -167 -115 -75 0 -118 26 -152 95 -24 48 -25 56 -25 255 0 195 1 207 23
243 12 21 22 40 22 43 0 2 -54 4 -120 4 l-120 0 22 -42z"/>
<path d="M3840 767 c0 -1 9 -20 20 -42 19 -37 20 -59 20 -325 0 -260 -2 -289
-20 -327 l-19 -43 114 0 c63 0 115 2 115 4 0 2 -9 23 -20 47 -15 35 -20 66
-20 152 l0 107 48 0 47 -1 100 -154 99 -155 84 0 c74 0 83 2 78 16 -4 9 -54
87 -113 172 -95 140 -104 157 -88 166 96 58 136 110 143 189 5 64 -12 104 -63
142 -60 47 -110 55 -327 55 -109 0 -198 -1 -198 -3z m387 -107 c57 -34 66
-132 19 -203 -18 -27 -29 -33 -66 -35 -25 -2 -69 -1 -97 3 l-53 6 0 125 0 124
83 0 c64 0 89 -4 114 -20z"/>
<path d="M4555 753 c33 -77 34 -93 34 -353 0 -260 -1 -276 -34 -352 -7 -17 2
-18 109 -18 64 0 116 2 116 5 0 3 -9 23 -20 45 -19 36 -20 59 -20 320 0 261 1
284 20 320 11 22 20 42 20 45 0 3 -52 5 -116 5 -107 0 -116 -1 -109 -17z"/>
<path d="M4885 753 c33 -77 34 -93 34 -358 1 -248 -1 -274 -19 -314 -11 -24
-20 -45 -20 -47 0 -2 43 -4 95 -4 52 0 95 2 95 5 0 3 -9 24 -20 45 -19 37 -20
56 -18 285 l3 246 170 -290 170 -291 83 0 82 0 0 318 c1 313 2 328 35 405 6
15 -1 17 -89 17 -53 0 -96 -2 -96 -5 0 -3 9 -24 20 -45 19 -37 20 -56 18 -262
l-3 -222 -56 94 c-31 52 -100 173 -155 267 l-99 172 -119 1 c-109 0 -118 -1
-111 -17z"/>
</g>
</svg>
